<mxfile host="app.diagrams.net" modified="2021-11-01T06:58:43.329Z" agent="5.0 (Windows NT 10.0; Win64; x64) AppleWebKit/537.36 (KHTML, like Gecko) Chrome/95.0.4638.54 Safari/537.36 Edg/95.0.1020.40" etag="btyIWOpsVZaXztMhL863" version="15.6.3" type="github">
  <diagram id="C5RBs43oDa-KdzZeNtuy" name="Page-1">
    <mxGraphModel dx="1038" dy="579" grid="1" gridSize="10" guides="1" tooltips="1" connect="1" arrows="1" fold="1" page="1" pageScale="1" pageWidth="827" pageHeight="1169" math="0" shadow="0">
      <root>
        <mxCell id="WIyWlLk6GJQsqaUBKTNV-0" />
        <mxCell id="WIyWlLk6GJQsqaUBKTNV-1" parent="WIyWlLk6GJQsqaUBKTNV-0" />
        <mxCell id="-y6dFNWrjG3XqUUeoCN1-1" style="edgeStyle=orthogonalEdgeStyle;rounded=0;orthogonalLoop=1;jettySize=auto;html=1;entryX=0;entryY=0.5;entryDx=0;entryDy=0;exitX=0.5;exitY=1;exitDx=0;exitDy=0;" edge="1" parent="WIyWlLk6GJQsqaUBKTNV-1" source="-y6dFNWrjG3XqUUeoCN1-8" target="-y6dFNWrjG3XqUUeoCN1-0">
          <mxGeometry relative="1" as="geometry">
            <mxPoint x="150" y="184" as="sourcePoint" />
            <Array as="points">
              <mxPoint x="180" y="300" />
            </Array>
          </mxGeometry>
        </mxCell>
        <mxCell id="-y6dFNWrjG3XqUUeoCN1-2" style="edgeStyle=orthogonalEdgeStyle;rounded=0;orthogonalLoop=1;jettySize=auto;html=1;entryX=1;entryY=0.5;entryDx=0;entryDy=0;exitX=0.5;exitY=1;exitDx=0;exitDy=0;" edge="1" parent="WIyWlLk6GJQsqaUBKTNV-1" source="-y6dFNWrjG3XqUUeoCN1-7" target="-y6dFNWrjG3XqUUeoCN1-0">
          <mxGeometry relative="1" as="geometry">
            <mxPoint x="610" y="256" as="sourcePoint" />
            <Array as="points">
              <mxPoint x="590" y="300" />
            </Array>
          </mxGeometry>
        </mxCell>
        <mxCell id="-y6dFNWrjG3XqUUeoCN1-3" style="edgeStyle=orthogonalEdgeStyle;rounded=0;orthogonalLoop=1;jettySize=auto;html=1;entryX=0.5;entryY=0;entryDx=0;entryDy=0;entryPerimeter=0;" edge="1" parent="WIyWlLk6GJQsqaUBKTNV-1" source="-y6dFNWrjG3XqUUeoCN1-0" target="-y6dFNWrjG3XqUUeoCN1-9">
          <mxGeometry relative="1" as="geometry">
            <mxPoint x="370" y="390" as="targetPoint" />
          </mxGeometry>
        </mxCell>
        <mxCell id="-y6dFNWrjG3XqUUeoCN1-0" value="usp_Insert_Fact_SpcApply_New" style="rounded=1;whiteSpace=wrap;html=1;" vertex="1" parent="WIyWlLk6GJQsqaUBKTNV-1">
          <mxGeometry x="300" y="270" width="180" height="60" as="geometry" />
        </mxCell>
        <mxCell id="-y6dFNWrjG3XqUUeoCN1-7" value="Stage_GST_DW_ECM_SPCApply_New" style="rounded=1;whiteSpace=wrap;html=1;" vertex="1" parent="WIyWlLk6GJQsqaUBKTNV-1">
          <mxGeometry x="490" y="140" width="260" height="60" as="geometry" />
        </mxCell>
        <mxCell id="-y6dFNWrjG3XqUUeoCN1-8" value="Stage_GST_DW_BPM_SPCComment" style="rounded=1;whiteSpace=wrap;html=1;" vertex="1" parent="WIyWlLk6GJQsqaUBKTNV-1">
          <mxGeometry x="60" y="140" width="240" height="60" as="geometry" />
        </mxCell>
        <mxCell id="-y6dFNWrjG3XqUUeoCN1-9" value="Fact_SPCApply_New" style="rounded=1;whiteSpace=wrap;html=1;" vertex="1" parent="WIyWlLk6GJQsqaUBKTNV-1">
          <mxGeometry x="300" y="390" width="180" height="60" as="geometry" />
        </mxCell>
      </root>
    </mxGraphModel>
  </diagram>
</mxfile>
